<svg id="Layer_1" data-name="Layer 1" xmlns="http://www.w3.org/2000/svg" xmlns:xlink="http://www.w3.org/1999/xlink" viewBox="0 0 757 727"><defs><style>.cls-1{fill:url(#linear-gradient);}.cls-2{fill:url(#linear-gradient-2);}.cls-3{fill:url(#linear-gradient-3);}</style><linearGradient id="linear-gradient" x1="217.19" y1="613.37" x2="523.99" y2="81.98" gradientUnits="userSpaceOnUse"><stop offset="0" stop-color="#ecc45e"/><stop offset="0.23" stop-color="#a67029"/><stop offset="0.33" stop-color="#e1b655"/><stop offset="0.46" stop-color="#f7f0b6"/><stop offset="0.58" stop-color="#e1b655"/><stop offset="0.69" stop-color="#8e5e25"/><stop offset="1" stop-color="#e1b655"/></linearGradient><linearGradient id="linear-gradient-2" x1="160.32" y1="218.28" x2="595.43" y2="218.28" gradientTransform="matrix(0.99, 0.1, -0.1, 0.99, 15.11, 164.09)" gradientUnits="userSpaceOnUse"><stop offset="0" stop-color="#696e72"/><stop offset="0.51" stop-color="#b7babc"/><stop offset="0.7" stop-color="#adb2b4"/><stop offset="1" stop-color="#7c8185"/></linearGradient><linearGradient id="linear-gradient-3" x1="350.02" y1="270.52" x2="592.72" y2="270.52" gradientTransform="matrix(0.99, 0.1, -0.1, 0.99, 15.11, 164.09)" gradientUnits="userSpaceOnUse"><stop offset="0" stop-color="#696e72"/><stop offset="0.27" stop-color="#adb2b4"/><stop offset="0.47" stop-color="#e1e3e4"/><stop offset="1" stop-color="#696e72"/></linearGradient></defs><path class="cls-1" d="M367.94,40.22C195.6,40.22,55.88,179.93,55.88,352.28a311,311,0,0,0,91.76,220.94c-13.79-34.28-17.76-71.33-21.49-108.21-64-129-13-280.63,115-349.26,130.63-70,293.3-20.89,363.32,109.74s20.89,293.3-109.74,363.32A269.76,269.76,0,0,1,463.68,603a346.86,346.86,0,0,1,21.79,38.39C599.56,595,680,483,680,352.28,680,179.93,540.29,40.22,367.94,40.22Z"/><path class="cls-2" d="M590.73,361C605.12,307.53,598,271.34,538,250.24c-14.64-26.34-43.6-58.89-99.31-72.31-97.33-23.53-147.08-2.7-190.24-42.71,5,38.23,13.42,57.5,47.43,67.18,34.68,9.5,75.29,10.61,109.91,13.34,26.93,2,48.39,2.21,65.23,13,8.53,5.18,30.39,26.4,35.51,40-1.63-2.06-4.2-2.13-8.18-5-11.19-4.45-25.62-7.67-34.19-10.34-11.44-4-15.84-7.12-28.34-26.91-69,.54-140.06,3.85-190.33-42.07-1.85,28.67,11,45.93,37.29,53.42C194.58,302.07,104.5,412.3,168.13,562.19c29.77,70.13,70.23,97,127.77,122.38-51.44-54.33,5.19-65.29,96.1,4.24-41.84-62.49-111.75-76-82.33-155.92C331.53,624,419,580.8,444.1,647.1c4.75-75.83-69-135.36-76-207-5.35-59.18,19.1-97.92,83.12-111.72C505.5,316.61,587.54,348.11,590.73,361Z"/><path class="cls-3" d="M444.1,647.1c4.75-75.83-68.09-131.13-75-202.72-5.36-59.18,19.09-97.92,83.11-111.72,38.52-8.4,115.9,13.08,138.54,28.35-13.64-19.33-42.91-44-121.55-43.5-108.7,10.72-167.85,120.42-105.07,204.34C393.88,561.92,434.87,590.75,444.1,647.1Z"/></svg>